<svg height="24" viewBox="0 0 24 24" width="24" xmlns="http://www.w3.org/2000/svg"><path fill="#B0ACB3" d="m12 22a9.941 9.941 0 0 0 4.924-1.3l3.76 1.253a.987.987 0 0 0 .316.047 1 1 0 0 0 .948-1.316l-1.248-3.76a9.995 9.995 0 1 0 -8.7 5.076zm0-18a7.989 7.989 0 0 1 6.757 12.269 1 1 0 0 0 -.1.851l.766 2.3-2.3-.766a.991.991 0 0 0 -.851.1 8 8 0 1 1 -4.272-14.754z"></path><path fill="#B0ACB3" d="m8 10.5h8a1 1 0 0 0 0-2h-8a1 1 0 0 0 0 2z"></path><path fill="#B0ACB3" d="m8 15.5h4a1 1 0 0 0 0-2h-4a1 1 0 0 0 0 2z"></path></svg>
