<svg height="24" viewBox="0 0 24 24" width="24" xmlns="http://www.w3.org/2000/svg"><path fill="#B0ACB3" d="m21.645 8.769-5.817-.85-2.928-5.866a1.042 1.042 0 0 0 -1.79 0l-2.938 5.866-5.817.85a1 1 0 0 0 -.492 1.76l4.805 3.963-1.515 6.79a1 1 0 0 0 1.56 1.03l5.287-3.803 5.287 3.8a1 1 0 0 0 1.56-1.03l-1.515-6.79 4.805-3.963a1 1 0 0 0 -.492-1.76zm-6.059 4.571a1 1 0 0 0 -.339.989l1.076 4.826-3.739-2.689a1 1 0 0 0 -1.168 0l-3.739 2.689 1.076-4.826a1 1 0 0 0 -.339-.989l-3.538-2.918 4.1-.6a1 1 0 0 0 .75-.542l2.274-4.545 2.272 4.545a1 1 0 0 0 .75.542l4.1.6z"></path></svg>
