<svg enable-background="new 0 0 508.727 508.727" height="24" viewBox="0 0 508.727 508.727" width="24" xmlns="http://www.w3.org/2000/svg">
  <g fill="#B0ACB3"><path d="m254.344 116.245c-51.003 0-92.349 41.346-92.349 92.349s41.346 92.349 92.349 92.349 92.349-41.346 92.349-92.349-41.347-92.349-92.349-92.349zm0 138.523c-25.501 0-46.174-20.673-46.174-46.174s20.673-46.174 46.174-46.174 46.174 20.673 46.174 46.174-20.673 46.174-46.174 46.174z"></path>
  <path d="m461.943 208.132c.306-114.642-92.381-207.825-207.022-208.131-114.642-.306-207.825 92.381-208.131 207.022-.997 130.815 77.233 249.238 197.949 299.648 3.017 1.366 6.293 2.067 9.604 2.055 3.336.006 6.634-.703 9.674-2.078 120.333-50.25 198.48-168.114 197.926-298.516zm-207.599 252.112c-99.503-43.808-163.096-142.944-161.426-251.651 0-89.153 72.273-161.426 161.426-161.426s161.426 72.273 161.426 161.426v1.501c1.143 108.187-62.377 206.62-161.426 250.15z"></path></g>
</svg>
